<?xml version="1.0" encoding="UTF-8" standalone="no"?>
<!DOCTYPE svg PUBLIC "-//W3C//DTD SVG 1.1//EN" "http://www.w3.org/Graphics/SVG/1.1/DTD/svg11.dtd">
<svg width="100%" height="100%" viewBox="0 0 300 300" version="1.1" xmlns="http://www.w3.org/2000/svg" xmlns:xlink="http://www.w3.org/1999/xlink" xml:space="preserve" xmlns:serif="http://www.serif.com/" style="fill-rule:evenodd;clip-rule:evenodd;stroke-linecap:round;stroke-linejoin:round;stroke-miterlimit:1.5;">
    <g id="stock" transform="matrix(2.30909,0,0,2.30909,-166.025,-187.216)">
        <g transform="matrix(0.449882,0.259739,-0.270652,0.468782,140.629,39.1723)">
            <path d="M189.656,104.072C189.656,95.84 182.692,89.157 174.115,89.157L101.69,89.157C93.113,89.157 86.149,95.84 86.149,104.072L86.149,212.207C86.149,220.438 93.113,227.122 101.69,227.122L174.115,227.122C182.692,227.122 189.656,220.438 189.656,212.207L189.656,104.072Z" style="fill:none;stroke:white;stroke-width:3.27px;"/>
        </g>
        <g transform="matrix(0.519774,0,0,0.541612,65.5029,51.8399)">
            <path d="M189.656,104.072C189.656,95.84 182.692,89.157 174.115,89.157L101.69,89.157C93.113,89.157 86.149,95.84 86.149,104.072L86.149,212.207C86.149,220.438 93.113,227.122 101.69,227.122L123.605,227.122" style="fill:none;stroke:white;stroke-width:3.26px;"/>
        </g>
        <g transform="matrix(0.449836,-0.259713,0.267033,0.462515,9.76007,112.23)">
            <path d="M171.469,87.584L101.69,89.157C93.113,89.157 86.149,95.93 86.149,104.272L86.149,212.006C86.149,220.348 93.113,227.122 101.69,227.122L148.037,227.795" style="fill:none;stroke:white;stroke-width:3.29px;"/>
        </g>
    </g>
</svg>
