<?xml version="1.0" encoding="UTF-8" standalone="no"?>
<!DOCTYPE svg PUBLIC "-//W3C//DTD SVG 1.1//EN" "http://www.w3.org/Graphics/SVG/1.1/DTD/svg11.dtd">
<svg width="100%" height="100%" viewBox="0 0 267 267" version="1.1" xmlns="http://www.w3.org/2000/svg" xmlns:xlink="http://www.w3.org/1999/xlink" xml:space="preserve" xmlns:serif="http://www.serif.com/" style="fill-rule:evenodd;clip-rule:evenodd;">
    <g transform="matrix(2.66667,0,0,2.66667,0,0)">
        <circle cx="50" cy="50" r="48" style="fill:white;stroke:rgb(209,209,209);stroke-width:2px;"/>
        <g transform="matrix(0.142857,0,0,0.142857,11.9048,11.9048)">
            <path d="M425.817,181.328C325.001,106.402 290.262,46.423 266.668,0.001C266.666,0.001 266.666,0 266.666,0L266.666,0.001C243.074,46.423 208.333,106.403 107.517,181.328C-64.376,309.081 97.425,487.405 239.683,389.258C230.414,450.158 198.782,494.556 166.658,513.674L166.658,533.333L366.674,533.333L366.674,513.677C334.548,494.559 302.918,450.16 293.648,389.258C435.905,487.407 597.709,309.081 425.817,181.328Z" style="fill-rule:nonzero;"/>
        </g>
        <g transform="matrix(1,0,0,1,0,4.88871)">
            <path d="M50,80C15,55 10,30 30,15C40,7 45,10 50,17C55,10 60,7 70,15C90,30 85,55 50,80Z" style="fill:rgb(227,29,43);fill-rule:nonzero;"/>
        </g>
        <g transform="matrix(2.64653,0,0,2.64653,42.6638,73.2894)">
            <path d="M2.783,0.22C1.133,0.22 -0.062,-0.121 -0.803,-0.803C-1.544,-1.485 -1.947,-2.618 -2.013,-4.202C-2.02,-4.437 -2.024,-4.695 -2.024,-4.978C-2.024,-5.26 -2.017,-5.542 -2.002,-5.824C-1.987,-6.107 -1.962,-6.365 -1.925,-6.6L1.177,-6.6C1.148,-6.065 1.129,-5.537 1.122,-5.016C1.115,-4.495 1.133,-4.019 1.177,-3.586C1.214,-3.227 1.37,-2.95 1.645,-2.756C1.92,-2.561 2.299,-2.464 2.783,-2.464C3.238,-2.464 3.597,-2.561 3.861,-2.756C4.125,-2.95 4.279,-3.227 4.323,-3.586C4.352,-3.835 4.373,-4.083 4.384,-4.329C4.395,-4.574 4.395,-4.82 4.384,-5.066C4.373,-5.311 4.352,-5.559 4.323,-5.808C4.294,-6.116 4.162,-6.398 3.927,-6.655C3.692,-6.912 3.399,-7.077 3.047,-7.15L1.023,-7.612C0.253,-7.788 -0.356,-8.063 -0.803,-8.437C-1.25,-8.811 -1.573,-9.277 -1.771,-9.834C-1.969,-10.391 -2.079,-11.037 -2.101,-11.77C-2.108,-12.093 -2.112,-12.381 -2.112,-12.634C-2.112,-12.887 -2.108,-13.149 -2.101,-13.42C-2.057,-14.469 -1.863,-15.316 -1.518,-15.961C-1.173,-16.606 -0.651,-17.078 0.05,-17.375C0.75,-17.672 1.661,-17.82 2.783,-17.82C4.426,-17.82 5.616,-17.481 6.353,-16.803C7.09,-16.124 7.491,-14.997 7.557,-13.42C7.572,-13.105 7.574,-12.72 7.563,-12.265C7.552,-11.81 7.535,-11.389 7.513,-11L4.345,-11C4.367,-11.506 4.382,-12.012 4.389,-12.518C4.396,-13.024 4.389,-13.53 4.367,-14.036C4.36,-14.388 4.219,-14.659 3.944,-14.85C3.669,-15.041 3.282,-15.136 2.783,-15.136C2.321,-15.136 1.952,-15.041 1.678,-14.85C1.402,-14.659 1.243,-14.388 1.199,-14.036C1.155,-13.662 1.133,-13.284 1.133,-12.903C1.133,-12.522 1.155,-12.144 1.199,-11.77C1.236,-11.477 1.338,-11.207 1.507,-10.962C1.676,-10.716 1.947,-10.553 2.321,-10.472L4.103,-10.098C4.932,-9.922 5.601,-9.642 6.111,-9.257C6.62,-8.872 6.996,-8.389 7.238,-7.81C7.48,-7.231 7.616,-6.563 7.645,-5.808C7.652,-5.639 7.656,-5.463 7.656,-5.28C7.656,-5.097 7.652,-4.913 7.645,-4.73C7.638,-4.547 7.63,-4.371 7.623,-4.202C7.557,-2.618 7.15,-1.485 6.402,-0.803C5.654,-0.121 4.448,0.22 2.783,0.22Z" style="fill:white;fill-rule:nonzero;"/>
        </g>
    </g>
</svg>
