<?xml version="1.0" encoding="UTF-8" standalone="no"?>
<!DOCTYPE svg PUBLIC "-//W3C//DTD SVG 1.1//EN" "http://www.w3.org/Graphics/SVG/1.1/DTD/svg11.dtd">
<svg width="100%" height="100%" viewBox="0 0 300 300" version="1.1" xmlns="http://www.w3.org/2000/svg" xmlns:xlink="http://www.w3.org/1999/xlink" xml:space="preserve" xmlns:serif="http://www.serif.com/" style="fill-rule:evenodd;clip-rule:evenodd;stroke-linecap:round;stroke-linejoin:round;stroke-miterlimit:1.5;">
    <g id="stock-empty" serif:id="stock empty" transform="matrix(0.856313,0,0,0.856313,25.4989,2.17785)">
        <g transform="matrix(1.04232,0,0,1.04232,-6.19006,-1.24447)">
            <g transform="matrix(0.707107,0.707107,-0.707107,0.707107,173.615,50.2919)">
                <path d="M49.666,65.644C49.666,60.371 45.385,56.09 40.112,56.09C34.84,56.09 30.559,60.371 30.559,65.644L30.559,114.718C30.559,119.991 34.84,124.272 40.112,124.272C45.385,124.272 49.666,119.991 49.666,114.718L49.666,65.644Z" style="fill:white;"/>
            </g>
            <g transform="matrix(0.707107,-0.707107,0.707107,0.707107,46.08,142.319)">
                <path d="M49.666,65.644C49.666,60.371 45.385,56.09 40.112,56.09C34.84,56.09 30.559,60.371 30.559,65.644L30.559,114.718C30.559,119.991 34.84,124.272 40.112,124.272C45.385,124.272 49.666,119.991 49.666,114.718L49.666,65.644Z" style="fill:white;"/>
            </g>
            <g transform="matrix(3.3678,3.3678,-3.3678,3.3678,146.255,161.573)">
                <path d="M0,-19.623C10.83,-19.623 19.623,-10.83 19.623,0C19.623,10.83 10.83,19.623 0,19.623C-10.83,19.623 -19.623,10.83 -19.623,0C-19.623,-10.83 -10.83,-19.623 0,-19.623ZM0,-16.549C9.134,-16.549 16.549,-9.134 16.549,0C16.549,9.134 9.134,16.549 0,16.549C-9.134,16.549 -16.549,9.134 -16.549,0C-16.549,-9.134 -9.134,-16.549 0,-16.549Z" style="fill:white;"/>
            </g>
        </g>
        <g transform="matrix(2.69655,0,0,2.69655,-223.661,-221.174)">
            <g transform="matrix(0.449882,0.259739,-0.270652,0.468782,140.629,39.1723)">
                <path d="M127.792,225.158L174.115,227.122C182.692,227.122 189.656,220.438 189.656,212.207L189.656,104.072C189.656,95.84 182.692,89.157 174.115,89.157L101.69,89.157C93.113,89.157 87.131,100.362 87.131,108.594" style="fill:none;stroke:white;stroke-width:3.27px;"/>
            </g>
            <g transform="matrix(0.519774,0,0,0.541612,65.5029,51.8399)">
                <path d="M189.656,104.072C189.656,95.84 182.692,89.157 174.115,89.157L101.69,89.157C93.113,89.157 86.149,95.84 86.149,104.072L86.149,134.823" style="fill:none;stroke:white;stroke-width:3.26px;"/>
            </g>
            <g transform="matrix(0.449836,-0.259713,0.267033,0.462515,9.76007,112.23)">
                <path d="M171.469,87.584L101.69,89.157C93.113,89.157 86.149,95.93 86.149,104.272L86.149,212.006C86.149,220.348 93.113,227.122 101.69,227.122L148.037,227.795" style="fill:none;stroke:white;stroke-width:3.29px;"/>
            </g>
        </g>
    </g>
</svg>
